<svg width="204" height="156" viewBox="0 0 204 156" fill="none" xmlns="http://www.w3.org/2000/svg">
<path d="M198.725 0C201.104 0 203.03 1.62552 203.03 3.63048V73.1156C203.03 118.227 154.965 154.827 101.454 155.09H100.878C59.9507 154.893 22.6067 133.428 7.31689 103.157C24.8348 125.076 50.6419 143.594 109.058 131.559C173.899 118.194 151.043 1.47093 151.043 1.47093V0.00937099H198.725V0Z" fill="#CD6A14"/>
<path d="M107.831 137.963C48.2437 144.802 24.8347 125.071 7.31681 103.153C2.61989 93.8538 0 83.7166 0 73.1109V3.63048C0 1.62552 1.92597 0 4.30512 0H181.971C181.971 0 185.29 48.9061 174.008 91.8535C167.654 116.044 141.087 134.145 107.831 137.958V137.963Z" fill="#DE7505"/>
<path d="M40.2897 137.963H162.315V151.084C162.315 153.539 160.309 155.53 157.835 155.53H44.7694C42.2959 155.53 40.2897 153.539 40.2897 151.084V137.963Z" fill="#CD6A14"/>
<path d="M37.6935 112.053C35.4559 103.949 33.3364 95.7606 31.6937 87.5252C29.9754 78.887 30.5891 69.5134 30.084 60.7393C29.527 51.019 28.8142 41.3549 27.8606 31.6627C27.3744 26.7112 26.9307 21.8205 25.8544 16.9534C24.7828 12.0955 20.7846 5.24213 14.7706 8.38542C9.88486 10.9385 9.75741 17.5905 9.56859 22.4108C9.37977 27.2265 9.85654 32.1358 10.0406 36.9515C10.423 46.8873 11.2774 56.7762 12.0705 66.6886C12.8116 75.9639 13.0146 86.5649 16.7957 95.1984C18.6037 99.3302 21.115 103.471 24.4005 106.61C27.4688 109.538 31.0753 111.988 34.5024 114.48C36.0838 115.632 38.1466 113.735 37.684 112.053H37.6935Z" fill="#FC9E3B"/>
<path d="M48.3997 58.9307C47.8285 53.2859 47.4178 47.613 46.6247 41.9963C45.827 36.3421 45.1378 30.6692 44.3022 25.0197C43.9388 22.5463 43.4478 20.0869 43.023 17.6229C42.5604 14.9246 42.5226 11.9734 41.1489 9.57024C40.1529 7.82761 37.8351 8.45065 37.1931 10.0855C36.1782 12.648 36.6078 15.7725 36.5511 18.4942C36.4992 21.1081 36.3859 23.7174 36.4331 26.3314C36.537 31.9855 36.7494 37.6491 37.009 43.2939C37.2687 48.9528 37.9767 54.607 38.5526 60.2424C39.0625 65.2361 38.9775 71.7241 42.5368 75.645C43.9954 77.2518 46.823 76.774 47.8615 74.9658C50.4814 70.3843 48.9095 63.9197 48.4044 58.9401L48.3997 58.9307Z" fill="#FC9E3B"/>
<path d="M196.983 39.64C196.926 34.8618 196.936 30.0836 196.648 25.3101C196.364 20.6537 196.407 15.9833 194.929 11.519C194.793 11.0974 194.226 11.1114 194.084 11.519C192.588 15.7678 192.508 20.204 192.144 24.659C191.795 28.9968 191.672 33.3346 191.531 37.6819C191.262 46.0624 191.101 54.4617 190.643 62.8376C190.214 70.7918 189.43 78.8351 188.212 86.7098C187.627 90.4948 186.89 94.4251 185.682 98.0696C184.403 101.916 182.453 105.471 181.117 109.284C180.834 110.095 182.019 110.788 182.585 110.132C187.367 104.628 190.214 96.4348 192.399 89.586C194.962 81.5474 196.11 73.5042 196.629 65.1049C197.153 56.6119 197.082 48.1376 196.978 39.64H196.983Z" fill="#DE7505"/>
<path d="M119.363 149.084C108.747 146.967 97.3751 147.946 86.5934 147.604C75.4152 147.248 63.9963 145.791 52.8511 146.761C52.1053 146.826 51.8787 147.885 52.667 148.105C63.3354 151.075 74.9054 151.197 85.9278 151.717C96.8228 152.232 108.629 153.53 119.363 151.126C120.364 150.902 120.397 149.29 119.363 149.084Z" fill="#DE7505"/>
</svg>
